<svg t="1702978707133" class="icon" viewBox="0 0 1024 1024" version="1.1" xmlns="http://www.w3.org/2000/svg" p-id="9180" width="200" height="200"><path d="M503.003429 427.52v75.190857h21.504c29.257143 0 43.666286-12.726857 43.666285-38.034286 0-24.795429-14.409143-37.083429-43.300571-37.083428l-21.869714-0.073143z m289.426285-97.499429V119.954286a56.027429 56.027429 0 0 0-56.027428-56.027429H288.402286a56.027429 56.027429 0 0 0-56.027429 56.027429v209.92H128v349.988571h104.374857v223.963429c0 30.866286 25.161143 56.027429 56.027429 56.027428h447.926857a56.027429 56.027429 0 0 0 55.954286-56.027428V679.936h103.424V330.020571H792.429714z m-56.027428-196.022857v196.022857H288.402286v-196.022857h448zM620.470857 462.701714c0 23.917714-8.777143 43.008-26.185143 57.417143-17.554286 14.409143-39.350857 21.284571-65.609143 20.699429h-25.673142v81.188571h-49.590858V388.973714h80.164572c57.929143 0 86.893714 24.649143 86.893714 73.728zM261.193143 568.466286l-17.115429 53.394285h-53.76l85.211429-232.886857h58.368l83.602286 232.96h-54.125715l-17.408-53.394285H261.193143z m251.172571 363.446857a27.940571 27.940571 0 1 1 0-55.954286 27.940571 27.940571 0 0 1 0 55.954286z m224.036572-84.041143H288.402286V679.936h447.926857v167.936h0.073143z m53.833143-327.899429c-17.554286 14.409143-39.497143 21.357714-65.609143 20.699429h-25.6v81.188571h-49.590857V389.046857h80.091428c58.002286 0 86.893714 24.649143 86.893714 73.728a70.290286 70.290286 0 0 1-26.185142 57.270857z m-69.339429-92.452571h-21.942857v75.190857h21.430857c29.257143 0 43.812571-12.726857 43.812571-38.034286 0-24.795429-14.409143-37.156571-43.300571-37.156571z m-416.768 1.609143h-1.462857a86.089143 86.089143 0 0 1-3.949714 19.675428L272.091429 530.066286h62.171428l-26.550857-80.676572a88.868571 88.868571 0 0 1-3.657143-20.260571z" fill="#999999" p-id="9181"></path></svg>