<?xml version="1.0" standalone="no"?><!DOCTYPE svg PUBLIC "-//W3C//DTD SVG 1.1//EN" "http://www.w3.org/Graphics/SVG/1.1/DTD/svg11.dtd"><svg t="1702263722494" class="icon" viewBox="0 0 1024 1024" version="1.1" xmlns="http://www.w3.org/2000/svg" p-id="5170" xmlns:xlink="http://www.w3.org/1999/xlink" width="200" height="200"><path d="M958.974 632.734V230.888c0-0.108 0.108-0.324 0.108-0.432 0-17.157-12.517-30.861-28.703-34.099l-1.403-1.727-420.19-126.466-1.187 0.108c-6.798-2.266-14.136-3.561-21.689-3.561-12.841 0-24.711 3.669-34.962 9.82l-0.647 0.108L99.387 257.757c-3.237 1.295-6.259 2.913-9.064 4.748l-1.295 0.647-0.216 0.324c-14.136 9.712-23.524 25.574-24.387 43.81l-0.432 0.755v427.42l0.863 1.079a66.378 66.378 0 0 0 45.429 56.22l0.54 0.755 480.834 159.702 1.727-0.324c6.69 2.374 13.704 4.1 21.15 4.1 17.265 0 32.696-7.122 43.918-18.344l0.54-0.108 270.415-235.453 0.647-1.187c14.675-14.244 24.495-33.128 27.624-54.385l1.295-2.482v-10.143c0-0.324 0.108-0.647 0.108-1.079s-0.109-0.754-0.109-1.078zM480.191 97.731l414.147 119.777-119.885 76.938-428.391-127.87 134.129-68.845z m120.532 810.49l-497.02-164.342V298.222l497.128 143.516V908.22h-0.108z m11.007-509.322L144.276 270.382l161.321-82.981 432.707 130.244-126.574 81.254z m306.887 252.503L640.433 903.041v-471.23l278.184-178.155v397.746z m-668.268-155.17l178.047 53.198c10.467 2.806 21.15-3.345 23.955-13.812 2.806-10.467-3.345-21.15-13.812-23.955l-178.047-53.198c-10.467-2.806-21.15 3.345-23.955 13.812-2.806 10.466 3.345 21.149 13.812 23.955z" p-id="5171" fill="#ed7c31"></path></svg>